<svg width="36" height="36" viewBox="0 0 36 36" fill="none" xmlns="http://www.w3.org/2000/svg">
<path opacity="0.1" d="M28.5 13.5C28.5 15.675 27.855 17.67 26.745 19.335C25.125 21.735 22.56 23.43 19.575 23.865C19.065 23.955 18.54 24 18 24C17.46 24 16.935 23.955 16.425 23.865C13.44 23.43 10.875 21.735 9.255 19.335C8.145 17.67 7.5 15.675 7.5 13.5C7.5 7.695 12.195 3 18 3C23.805 3 28.5 7.695 28.5 13.5Z" fill="#0B2441"/>
<path d="M31.8751 27.7046L29.4001 28.2896C28.8451 28.4246 28.4101 28.8446 28.2901 29.3996L27.7651 31.6046C27.4801 32.8046 25.9501 33.1646 25.1551 32.2196L18.0001 23.9996L10.8451 32.2346C10.0501 33.1796 8.52012 32.8196 8.23512 31.6196L7.71012 29.4146C7.57512 28.8596 7.14012 28.4246 6.60012 28.3046L4.12512 27.7196C2.98512 27.4496 2.58012 26.0246 3.40512 25.1996L9.25512 19.3496C10.8751 21.7496 13.4401 23.4446 16.4251 23.8796C16.9351 23.9696 17.4601 24.0146 18.0001 24.0146C18.5401 24.0146 19.0651 23.9696 19.5751 23.8796C22.5601 23.4446 25.1251 21.7496 26.7451 19.3496L32.5951 25.1996C33.4201 26.0096 33.0151 27.4346 31.8751 27.7046Z" fill="#686A80"/>
<path d="M18.87 8.97L19.755 10.74C19.875 10.98 20.19 11.22 20.475 11.265L22.08 11.535C23.1 11.7 23.34 12.45 22.605 13.185L21.36 14.43C21.15 14.64 21.03 15.045 21.105 15.345L21.465 16.89C21.75 18.105 21.105 18.585 20.025 17.94L18.525 17.055C18.255 16.89 17.805 16.89 17.535 17.055L16.035 17.94C14.955 18.57 14.31 18.105 14.595 16.89L14.955 15.345C15.015 15.06 14.91 14.64 14.7 14.43L13.455 13.185C12.72 12.45 12.96 11.715 13.98 11.535L15.585 11.265C15.855 11.22 16.17 10.98 16.29 10.74L17.175 8.97C17.61 8.01 18.39 8.01 18.87 8.97Z" fill="#686A80"/>
</svg>
